<svg width="22" height="22" viewBox="0 0 22 22" fill="none" xmlns="http://www.w3.org/2000/svg">
<path d="M11 22C17.0751 22 22 17.0751 22 11C22 4.92487 17.0751 0 11 0C4.92487 0 0 4.92487 0 11C0 17.0751 4.92487 22 11 22Z" fill="#CFCFCF"/>
<path d="M6.42577 14.435C6.45327 14.5444 7.13955 17.1111 10.9999 17.1111C14.8609 17.1111 15.5466 14.5444 15.5741 14.435C15.6077 14.3024 15.5478 14.1649 15.4293 14.0965C15.3101 14.0287 15.161 14.0488 15.0626 14.1435C15.051 14.1552 13.8685 15.2778 10.9999 15.2778C8.13138 15.2778 6.94827 14.1552 6.93727 14.1442C6.8786 14.0861 6.80038 14.0555 6.72216 14.0555C6.67083 14.0555 6.61888 14.0684 6.57183 14.0947C6.45205 14.1631 6.39216 14.3018 6.42577 14.435Z" fill="#4F5660"/>
<path d="M7.33344 10.3889C8.17721 10.3889 8.86122 9.43125 8.86122 8.24997C8.86122 7.0687 8.17721 6.11108 7.33344 6.11108C6.48967 6.11108 5.80566 7.0687 5.80566 8.24997C5.80566 9.43125 6.48967 10.3889 7.33344 10.3889Z" fill="#4F5660"/>
<path d="M14.6667 10.3889C15.5105 10.3889 16.1945 9.43125 16.1945 8.24997C16.1945 7.0687 15.5105 6.11108 14.6667 6.11108C13.8229 6.11108 13.1389 7.0687 13.1389 8.24997C13.1389 9.43125 13.8229 10.3889 14.6667 10.3889Z" fill="#4F5660"/>
</svg>
